<svg width="739" height="170" viewBox="0 0 739 170" fill="none" xmlns="http://www.w3.org/2000/svg">
<g opacity="0.9">
<path d="M168.723 84.5505C168.723 110.441 157.033 133.601 138.64 149.043L109.261 119.664C120.285 111.894 127.488 99.0622 127.488 84.5505C127.488 60.8386 108.263 41.6133 84.5506 41.6133C60.8386 41.6133 41.6133 60.8386 41.6133 84.5505C41.6133 93.8492 44.5641 102.452 49.5955 109.481L20.2317 138.844C7.84609 124.189 0.378418 105.244 0.378418 84.5505C0.378418 38.0648 38.0648 0.378357 84.5506 0.378357C131.036 0.378357 168.723 38.0648 168.723 84.5505Z" fill="#F7F7F7"/>
<path d="M84.5495 111.032C99.1746 111.032 111.031 99.1757 111.031 84.5506C111.031 69.9255 99.1746 58.0695 84.5495 58.0695C69.9244 58.0695 58.0684 69.9255 58.0684 84.5506C58.0684 99.1757 69.9244 111.032 84.5495 111.032Z" fill="#F7F7F7"/>
<path d="M138.64 149.043C134.478 152.539 129.969 155.641 125.18 158.281C113.135 164.94 99.2813 168.723 84.5502 168.723C64.538 168.723 46.1601 161.739 31.709 150.065L61.1938 120.58C67.9125 124.953 75.94 127.488 84.5502 127.488C87.6069 127.488 90.5879 127.17 93.463 126.565C99.2434 125.339 104.593 122.956 109.261 119.664L138.64 149.043Z" fill="#F7F7F7"/>
</g>
<g opacity="0.9">
<path d="M236.99 69.3246C238.849 64.3652 241.897 60.6457 246.134 58.166C250.473 55.6863 255.277 54.4464 260.547 54.4464V76.7637C254.451 75.9372 248.975 77.177 244.119 80.4833C239.366 83.6862 236.99 89.0072 236.99 96.4463V133.487H216.997V55.9962H236.99V69.3246Z" fill="#F7F7F7"/>
<path d="M280.057 102.956C282.64 112.668 289.925 117.524 301.91 117.524C309.556 117.524 315.342 114.941 319.268 109.775L335.386 119.074C327.74 130.129 316.478 135.657 301.6 135.657C288.788 135.657 278.508 131.782 270.759 124.033C263.01 116.284 259.135 106.52 259.135 94.7415C259.135 83.1696 262.958 73.4575 270.604 65.6051C278.146 57.7527 287.962 53.8265 300.05 53.8265C311.519 53.8265 320.869 57.7527 328.102 65.6051C335.541 73.5608 339.26 83.2729 339.26 94.7415C339.26 96.0847 339.157 97.4279 338.95 98.7711C338.847 100.114 338.692 101.509 338.485 102.956H280.057ZM319.268 87.4574C318.131 82.1881 315.806 78.2619 312.294 75.6789C308.781 73.0958 304.699 71.8043 300.05 71.8043C294.677 71.8043 290.235 73.1992 286.722 75.9888C283.209 78.6752 280.884 82.498 279.748 87.4574H319.268Z" fill="#F7F7F7"/>
<path d="M392.117 53.8265C402.553 53.8265 411.438 57.8044 418.774 65.7601C426.213 73.7158 429.933 83.3763 429.933 94.7415C429.933 106.313 426.213 116.026 418.774 123.878C411.542 131.73 402.656 135.657 392.117 135.657C381.269 135.657 372.9 131.885 367.01 124.343V133.487H347.018V25H367.01V65.1401C372.9 57.5977 381.269 53.8265 392.117 53.8265ZM373.055 110.55C377.084 114.579 382.199 116.594 388.398 116.594C394.597 116.594 399.711 114.579 403.741 110.55C407.874 106.417 409.94 101.147 409.94 94.7415C409.94 88.3357 407.874 83.118 403.741 79.0884C399.711 74.9556 394.597 72.8892 388.398 72.8892C382.199 72.8892 377.084 74.9556 373.055 79.0884C369.025 83.118 367.01 88.3357 367.01 94.7415C367.01 101.147 369.025 106.417 373.055 110.55Z" fill="#F7F7F7"/>
<path d="M488.977 55.9962H508.97V133.487H488.977V124.808C484.224 132.04 476.527 135.657 465.885 135.657C457.412 135.657 450.387 132.815 444.807 127.133C439.331 121.347 436.593 113.494 436.593 103.575V55.9962H456.586V101.096C456.586 106.365 457.981 110.343 460.77 113.029C463.56 115.716 467.28 117.059 471.929 117.059C477.198 117.059 481.331 115.509 484.328 112.409C487.427 109.206 488.977 104.35 488.977 97.8412V55.9962Z" fill="#F7F7F7"/>
<path d="M538.918 78.0036C538.918 80.07 540.262 81.7748 542.948 83.118C545.738 84.3578 549.096 85.4943 553.022 86.5275C555.811 87.1475 558.756 87.974 561.856 89.0072C564.955 90.0405 567.745 91.4869 570.225 93.3467C572.808 95.2065 574.874 97.5829 576.424 100.476C578.077 103.266 578.904 106.727 578.904 110.86C578.904 118.815 575.907 124.963 569.915 129.302C563.922 133.539 556.535 135.657 547.752 135.657C531.841 135.657 520.992 129.509 515.206 117.214L532.564 107.45C534.941 114.166 540.003 117.524 547.752 117.524C554.882 117.524 558.446 115.302 558.446 110.86C558.446 108.793 557.051 107.14 554.262 105.9C551.575 104.557 548.269 103.369 544.343 102.336C541.45 101.612 538.454 100.734 535.354 99.7009C532.358 98.5644 529.568 97.1179 526.985 95.3615C524.505 93.605 522.439 91.3836 520.786 88.6973C519.236 85.9076 518.461 82.498 518.461 78.4685C518.461 70.8228 521.251 64.8302 526.83 60.4907C532.513 56.0479 539.538 53.8265 547.907 53.8265C554.21 53.8265 559.944 55.273 565.11 58.166C570.276 60.9556 574.358 64.9852 577.354 70.2545L560.306 79.5534C557.826 74.284 553.693 71.6493 547.907 71.6493C545.324 71.6493 543.155 72.2176 541.398 73.3541C539.745 74.4907 538.918 76.0405 538.918 78.0036Z" fill="#F7F7F7"/>
<path d="M621.388 135.657C609.713 135.657 599.949 131.73 592.096 123.878C584.347 116.026 580.473 106.313 580.473 94.7415C580.473 83.2729 584.347 73.5608 592.096 65.6051C599.949 57.7527 609.713 53.8265 621.388 53.8265C628.93 53.8265 635.801 55.6346 642 59.2508C648.2 62.7638 652.901 67.6198 656.104 73.8191L638.901 83.8929C637.351 80.6899 634.975 78.1586 631.772 76.2988C628.672 74.439 625.159 73.5091 621.233 73.5091C618.237 73.5091 615.447 74.0257 612.864 75.0589C610.384 76.0921 608.214 77.5903 606.355 79.5534C604.495 81.4132 603.048 83.6346 602.015 86.2176C600.982 88.8006 600.465 91.6419 600.465 94.7415C600.465 100.734 602.428 105.797 606.355 109.93C610.281 113.856 615.24 115.819 621.233 115.819C625.262 115.819 628.827 114.941 631.927 113.184C635.13 111.325 637.506 108.793 639.056 105.59L656.414 115.509C653.004 121.708 648.2 126.616 642 130.232C635.801 133.848 628.93 135.657 621.388 135.657Z" fill="#F7F7F7"/>
<path d="M718.47 55.9962H738.463V133.487H718.47V124.343C712.478 131.885 704.057 135.657 693.208 135.657C682.876 135.657 673.991 131.73 666.552 123.878C659.216 115.922 655.548 106.21 655.548 94.7415C655.548 83.3763 659.216 73.7158 666.552 65.7601C673.991 57.8044 682.876 53.8265 693.208 53.8265C704.057 53.8265 712.478 57.5977 718.47 65.1401V55.9962ZM681.585 110.55C685.614 114.579 690.729 116.594 696.928 116.594C703.127 116.594 708.241 114.579 712.271 110.55C716.404 106.417 718.47 101.147 718.47 94.7415C718.47 88.3357 716.404 83.118 712.271 79.0884C708.241 74.9556 703.127 72.8892 696.928 72.8892C690.729 72.8892 685.614 74.9556 681.585 79.0884C677.555 83.118 675.54 88.3357 675.54 94.7415C675.54 101.147 677.555 106.417 681.585 110.55Z" fill="#F7F7F7"/>
</g>
</svg>
